<mxfile host="app.diagrams.net" agent="Mozilla/5.0 (Macintosh; Intel Mac OS X 10_15_7) AppleWebKit/537.36 (KHTML, like Gecko) Chrome/136.0.0.0 Safari/537.36" version="27.0.6">
  <diagram name="Page-1" id="J2_ogvlOzoN3ZanIMFme">
    <mxGraphModel dx="891" dy="1009" grid="1" gridSize="10" guides="1" tooltips="1" connect="1" arrows="1" fold="1" page="1" pageScale="1" pageWidth="827" pageHeight="1169" math="0" shadow="0">
      <root>
        <mxCell id="0" />
        <mxCell id="1" parent="0" />
        <mxCell id="xIvlhzACJtldl9GAlVe_-1" value="Pool" style="swimlane;html=1;childLayout=stackLayout;startSize=20;rounded=0;shadow=0;labelBackgroundColor=none;strokeWidth=1;fontFamily=Verdana;fontSize=8;align=center;" vertex="1" parent="1">
          <mxGeometry x="70" y="40" width="640" height="750" as="geometry" />
        </mxCell>
        <mxCell id="xIvlhzACJtldl9GAlVe_-2" value="Subject" style="swimlane;html=1;startSize=20;" vertex="1" parent="xIvlhzACJtldl9GAlVe_-1">
          <mxGeometry y="20" width="160" height="730" as="geometry" />
        </mxCell>
        <mxCell id="xIvlhzACJtldl9GAlVe_-3" style="edgeStyle=orthogonalEdgeStyle;rounded=0;orthogonalLoop=1;jettySize=auto;html=1;exitX=0.5;exitY=0;exitDx=0;exitDy=0;entryX=0.5;entryY=1;entryDx=0;entryDy=0;" edge="1" parent="xIvlhzACJtldl9GAlVe_-2" source="xIvlhzACJtldl9GAlVe_-4" target="xIvlhzACJtldl9GAlVe_-5">
          <mxGeometry relative="1" as="geometry" />
        </mxCell>
        <mxCell id="xIvlhzACJtldl9GAlVe_-4" value="retryWhen Error&lt;br&gt;(2*1000ms)" style="rounded=1;whiteSpace=wrap;html=1;shadow=0;labelBackgroundColor=none;strokeWidth=1;fontFamily=Verdana;fontSize=8;align=center;" vertex="1" parent="xIvlhzACJtldl9GAlVe_-2">
          <mxGeometry x="30" y="240" width="100" height="60" as="geometry" />
        </mxCell>
        <mxCell id="xIvlhzACJtldl9GAlVe_-5" value="Start" style="rounded=1;whiteSpace=wrap;html=1;shadow=0;labelBackgroundColor=none;strokeWidth=1;fontFamily=Verdana;fontSize=8;align=center;" vertex="1" parent="xIvlhzACJtldl9GAlVe_-2">
          <mxGeometry x="30" y="65" width="100" height="60" as="geometry" />
        </mxCell>
        <mxCell id="xIvlhzACJtldl9GAlVe_-6" style="edgeStyle=orthogonalEdgeStyle;rounded=0;orthogonalLoop=1;jettySize=auto;html=1;exitX=0.5;exitY=0;exitDx=0;exitDy=0;entryX=0.5;entryY=1;entryDx=0;entryDy=0;" edge="1" parent="xIvlhzACJtldl9GAlVe_-2" source="xIvlhzACJtldl9GAlVe_-8" target="xIvlhzACJtldl9GAlVe_-4">
          <mxGeometry relative="1" as="geometry" />
        </mxCell>
        <mxCell id="xIvlhzACJtldl9GAlVe_-7" value="throw Error" style="edgeLabel;html=1;align=center;verticalAlign=middle;resizable=0;points=[];" vertex="1" connectable="0" parent="xIvlhzACJtldl9GAlVe_-6">
          <mxGeometry x="-0.1001" y="1" relative="1" as="geometry">
            <mxPoint as="offset" />
          </mxGeometry>
        </mxCell>
        <mxCell id="xIvlhzACJtldl9GAlVe_-8" value="timeout" style="rhombus;whiteSpace=wrap;html=1;rounded=0;shadow=0;labelBackgroundColor=none;strokeWidth=1;fontFamily=Verdana;fontSize=8;align=center;" vertex="1" parent="xIvlhzACJtldl9GAlVe_-2">
          <mxGeometry x="40" y="640" width="80" height="60" as="geometry" />
        </mxCell>
        <mxCell id="xIvlhzACJtldl9GAlVe_-9" value="Websocket" style="swimlane;html=1;startSize=20;" vertex="1" parent="xIvlhzACJtldl9GAlVe_-1">
          <mxGeometry x="160" y="20" width="160" height="730" as="geometry" />
        </mxCell>
        <mxCell id="xIvlhzACJtldl9GAlVe_-10" value="create Websocket&lt;br&gt;(Opening)" style="rounded=1;whiteSpace=wrap;html=1;shadow=0;labelBackgroundColor=none;strokeWidth=1;fontFamily=Verdana;fontSize=8;align=center;" vertex="1" parent="xIvlhzACJtldl9GAlVe_-9">
          <mxGeometry x="30" y="65" width="100" height="60" as="geometry" />
        </mxCell>
        <mxCell id="xIvlhzACJtldl9GAlVe_-11" value="onopen&lt;br&gt;(Opened)" style="rounded=1;whiteSpace=wrap;html=1;shadow=0;labelBackgroundColor=none;strokeWidth=1;fontFamily=Verdana;fontSize=8;align=center;fillColor=#d5e8d4;strokeColor=#82b366;" vertex="1" parent="xIvlhzACJtldl9GAlVe_-9">
          <mxGeometry x="30" y="160" width="100" height="60" as="geometry" />
        </mxCell>
        <mxCell id="xIvlhzACJtldl9GAlVe_-12" value="onmessage" style="rounded=1;whiteSpace=wrap;html=1;shadow=0;labelBackgroundColor=none;strokeWidth=1;fontFamily=Verdana;fontSize=8;align=center;" vertex="1" parent="xIvlhzACJtldl9GAlVe_-9">
          <mxGeometry x="30" y="400" width="100" height="60" as="geometry" />
        </mxCell>
        <mxCell id="xIvlhzACJtldl9GAlVe_-13" value="onclose&lt;br&gt;reset socket&lt;br&gt;throw Error" style="rounded=1;whiteSpace=wrap;html=1;shadow=0;labelBackgroundColor=none;strokeWidth=1;fontFamily=Verdana;fontSize=8;align=center;fillColor=#f8cecc;strokeColor=#b85450;" vertex="1" parent="xIvlhzACJtldl9GAlVe_-9">
          <mxGeometry x="30" y="320" width="100" height="60" as="geometry" />
        </mxCell>
        <mxCell id="xIvlhzACJtldl9GAlVe_-14" value="onerror&lt;br&gt;reset socket&lt;br&gt;throw Error" style="rounded=1;whiteSpace=wrap;html=1;shadow=0;labelBackgroundColor=none;strokeWidth=1;fontFamily=Verdana;fontSize=8;align=center;fillColor=#f8cecc;strokeColor=#b85450;" vertex="1" parent="xIvlhzACJtldl9GAlVe_-9">
          <mxGeometry x="30" y="240" width="100" height="60" as="geometry" />
        </mxCell>
        <mxCell id="xIvlhzACJtldl9GAlVe_-15" style="edgeStyle=orthogonalEdgeStyle;rounded=1;html=1;labelBackgroundColor=none;startArrow=none;startFill=0;startSize=5;endArrow=classicThin;endFill=1;endSize=5;jettySize=auto;orthogonalLoop=1;strokeWidth=1;fontFamily=Verdana;fontSize=8;exitX=0.5;exitY=1;exitDx=0;exitDy=0;entryX=-0.007;entryY=0.602;entryDx=0;entryDy=0;entryPerimeter=0;" edge="1" parent="xIvlhzACJtldl9GAlVe_-1" source="xIvlhzACJtldl9GAlVe_-12" target="xIvlhzACJtldl9GAlVe_-19">
          <mxGeometry relative="1" as="geometry">
            <mxPoint x="239.66000000000003" y="500" as="sourcePoint" />
            <mxPoint x="280" y="540" as="targetPoint" />
          </mxGeometry>
        </mxCell>
        <mxCell id="xIvlhzACJtldl9GAlVe_-16" style="edgeStyle=orthogonalEdgeStyle;rounded=0;orthogonalLoop=1;jettySize=auto;html=1;exitX=0;exitY=0.5;exitDx=0;exitDy=0;entryX=1;entryY=0.5;entryDx=0;entryDy=0;" edge="1" parent="xIvlhzACJtldl9GAlVe_-1" source="xIvlhzACJtldl9GAlVe_-22" target="xIvlhzACJtldl9GAlVe_-8">
          <mxGeometry relative="1" as="geometry" />
        </mxCell>
        <mxCell id="xIvlhzACJtldl9GAlVe_-17" value="Timer" style="swimlane;html=1;startSize=20;" vertex="1" parent="xIvlhzACJtldl9GAlVe_-1">
          <mxGeometry x="320" y="20" width="160" height="730" as="geometry" />
        </mxCell>
        <mxCell id="xIvlhzACJtldl9GAlVe_-18" style="edgeStyle=orthogonalEdgeStyle;rounded=0;orthogonalLoop=1;jettySize=auto;html=1;exitX=0.5;exitY=1;exitDx=0;exitDy=0;entryX=0.5;entryY=0;entryDx=0;entryDy=0;" edge="1" parent="xIvlhzACJtldl9GAlVe_-17" source="xIvlhzACJtldl9GAlVe_-19" target="xIvlhzACJtldl9GAlVe_-21">
          <mxGeometry relative="1" as="geometry" />
        </mxCell>
        <mxCell id="xIvlhzACJtldl9GAlVe_-19" value="clear heartbeat &lt;br&gt;timeout" style="rounded=1;whiteSpace=wrap;html=1;shadow=0;labelBackgroundColor=none;strokeWidth=1;fontFamily=Verdana;fontSize=8;align=center;" vertex="1" parent="xIvlhzACJtldl9GAlVe_-17">
          <mxGeometry x="30" y="460" width="100" height="60" as="geometry" />
        </mxCell>
        <mxCell id="xIvlhzACJtldl9GAlVe_-20" style="edgeStyle=orthogonalEdgeStyle;rounded=0;orthogonalLoop=1;jettySize=auto;html=1;exitX=0.5;exitY=1;exitDx=0;exitDy=0;entryX=0.5;entryY=0;entryDx=0;entryDy=0;" edge="1" parent="xIvlhzACJtldl9GAlVe_-17" source="xIvlhzACJtldl9GAlVe_-21" target="xIvlhzACJtldl9GAlVe_-22">
          <mxGeometry relative="1" as="geometry" />
        </mxCell>
        <mxCell id="xIvlhzACJtldl9GAlVe_-21" value="Start ping timeout&lt;br&gt;(3*1000 ms)" style="rounded=1;whiteSpace=wrap;html=1;shadow=0;labelBackgroundColor=none;strokeWidth=1;fontFamily=Verdana;fontSize=8;align=center;" vertex="1" parent="xIvlhzACJtldl9GAlVe_-17">
          <mxGeometry x="30" y="550" width="100" height="60" as="geometry" />
        </mxCell>
        <mxCell id="xIvlhzACJtldl9GAlVe_-22" value="Start Heartbeat&lt;br&gt;(10*1000 ms)&lt;br&gt;timeout throw Error" style="rounded=1;whiteSpace=wrap;html=1;shadow=0;labelBackgroundColor=none;strokeWidth=1;fontFamily=Verdana;fontSize=8;align=center;fillColor=#f8cecc;strokeColor=#b85450;" vertex="1" parent="xIvlhzACJtldl9GAlVe_-17">
          <mxGeometry x="30" y="640" width="100" height="60" as="geometry" />
        </mxCell>
        <mxCell id="xIvlhzACJtldl9GAlVe_-23" value="Server" style="swimlane;html=1;startSize=20;" vertex="1" parent="xIvlhzACJtldl9GAlVe_-1">
          <mxGeometry x="480" y="20" width="160" height="730" as="geometry" />
        </mxCell>
        <mxCell id="xIvlhzACJtldl9GAlVe_-24" value="Websocket Server" style="rounded=1;whiteSpace=wrap;html=1;shadow=0;labelBackgroundColor=none;strokeWidth=1;fontFamily=Verdana;fontSize=8;align=center;" vertex="1" parent="xIvlhzACJtldl9GAlVe_-23">
          <mxGeometry x="30" y="65" width="100" height="60" as="geometry" />
        </mxCell>
        <mxCell id="xIvlhzACJtldl9GAlVe_-25" style="edgeStyle=orthogonalEdgeStyle;rounded=0;orthogonalLoop=1;jettySize=auto;html=1;exitX=0.5;exitY=0;exitDx=0;exitDy=0;entryX=0.75;entryY=1;entryDx=0;entryDy=0;" edge="1" parent="xIvlhzACJtldl9GAlVe_-23" source="xIvlhzACJtldl9GAlVe_-27" target="xIvlhzACJtldl9GAlVe_-24">
          <mxGeometry relative="1" as="geometry" />
        </mxCell>
        <mxCell id="xIvlhzACJtldl9GAlVe_-26" value="Send Ping" style="edgeLabel;html=1;align=center;verticalAlign=middle;resizable=0;points=[];" vertex="1" connectable="0" parent="xIvlhzACJtldl9GAlVe_-25">
          <mxGeometry x="-0.7224" y="-1" relative="1" as="geometry">
            <mxPoint as="offset" />
          </mxGeometry>
        </mxCell>
        <mxCell id="xIvlhzACJtldl9GAlVe_-27" value="timeout" style="rhombus;whiteSpace=wrap;html=1;rounded=0;shadow=0;labelBackgroundColor=none;strokeWidth=1;fontFamily=Verdana;fontSize=8;align=center;" vertex="1" parent="xIvlhzACJtldl9GAlVe_-23">
          <mxGeometry x="65" y="550" width="80" height="60" as="geometry" />
        </mxCell>
        <mxCell id="xIvlhzACJtldl9GAlVe_-28" value="" style="edgeStyle=orthogonalEdgeStyle;rounded=0;orthogonalLoop=1;jettySize=auto;html=1;exitX=1;exitY=0.5;exitDx=0;exitDy=0;" edge="1" parent="xIvlhzACJtldl9GAlVe_-1" source="xIvlhzACJtldl9GAlVe_-10" target="xIvlhzACJtldl9GAlVe_-24">
          <mxGeometry relative="1" as="geometry">
            <mxPoint x="290" y="115" as="sourcePoint" />
          </mxGeometry>
        </mxCell>
        <mxCell id="xIvlhzACJtldl9GAlVe_-29" value="Connection" style="edgeLabel;html=1;align=center;verticalAlign=middle;resizable=0;points=[];" vertex="1" connectable="0" parent="xIvlhzACJtldl9GAlVe_-28">
          <mxGeometry x="-0.179" y="3" relative="1" as="geometry">
            <mxPoint x="20" y="3" as="offset" />
          </mxGeometry>
        </mxCell>
        <mxCell id="xIvlhzACJtldl9GAlVe_-30" style="edgeStyle=orthogonalEdgeStyle;rounded=1;html=1;labelBackgroundColor=none;startArrow=none;startFill=0;startSize=5;endArrow=classicThin;endFill=1;endSize=5;jettySize=auto;orthogonalLoop=1;strokeColor=#000000;strokeWidth=1;fontFamily=Verdana;fontSize=8;fontColor=#000000;exitX=0.5;exitY=1;exitDx=0;exitDy=0;entryX=1.003;entryY=0.564;entryDx=0;entryDy=0;entryPerimeter=0;" edge="1" parent="xIvlhzACJtldl9GAlVe_-1" source="xIvlhzACJtldl9GAlVe_-24" target="xIvlhzACJtldl9GAlVe_-11">
          <mxGeometry relative="1" as="geometry">
            <mxPoint x="559.83" y="200" as="sourcePoint" />
            <mxPoint x="559.83" y="220" as="targetPoint" />
          </mxGeometry>
        </mxCell>
        <mxCell id="xIvlhzACJtldl9GAlVe_-31" value="opened" style="edgeLabel;html=1;align=center;verticalAlign=middle;resizable=0;points=[];" vertex="1" connectable="0" parent="xIvlhzACJtldl9GAlVe_-30">
          <mxGeometry x="0.191" relative="1" as="geometry">
            <mxPoint x="-27" as="offset" />
          </mxGeometry>
        </mxCell>
        <mxCell id="xIvlhzACJtldl9GAlVe_-32" style="edgeStyle=orthogonalEdgeStyle;rounded=1;html=1;labelBackgroundColor=none;startArrow=none;startFill=0;startSize=5;endArrow=classicThin;endFill=1;endSize=5;jettySize=auto;orthogonalLoop=1;strokeColor=#000000;strokeWidth=1;fontFamily=Verdana;fontSize=8;fontColor=#000000;exitX=0.5;exitY=1;exitDx=0;exitDy=0;entryX=1;entryY=0.5;entryDx=0;entryDy=0;" edge="1" parent="xIvlhzACJtldl9GAlVe_-1" source="xIvlhzACJtldl9GAlVe_-24" target="xIvlhzACJtldl9GAlVe_-12">
          <mxGeometry relative="1" as="geometry">
            <mxPoint x="570" y="330" as="sourcePoint" />
            <mxPoint x="600" y="290" as="targetPoint" />
          </mxGeometry>
        </mxCell>
        <mxCell id="xIvlhzACJtldl9GAlVe_-33" value="push message" style="edgeLabel;html=1;align=center;verticalAlign=middle;resizable=0;points=[];" vertex="1" connectable="0" parent="xIvlhzACJtldl9GAlVe_-32">
          <mxGeometry x="0.5947" y="-2" relative="1" as="geometry">
            <mxPoint as="offset" />
          </mxGeometry>
        </mxCell>
        <mxCell id="xIvlhzACJtldl9GAlVe_-34" style="edgeStyle=orthogonalEdgeStyle;rounded=0;orthogonalLoop=1;jettySize=auto;html=1;exitX=1;exitY=0.5;exitDx=0;exitDy=0;entryX=0;entryY=0.5;entryDx=0;entryDy=0;" edge="1" parent="xIvlhzACJtldl9GAlVe_-1" source="xIvlhzACJtldl9GAlVe_-5" target="xIvlhzACJtldl9GAlVe_-10">
          <mxGeometry relative="1" as="geometry" />
        </mxCell>
        <mxCell id="xIvlhzACJtldl9GAlVe_-35" style="edgeStyle=orthogonalEdgeStyle;rounded=0;orthogonalLoop=1;jettySize=auto;html=1;exitX=0;exitY=0.5;exitDx=0;exitDy=0;entryX=1;entryY=0.5;entryDx=0;entryDy=0;" edge="1" parent="xIvlhzACJtldl9GAlVe_-1" source="xIvlhzACJtldl9GAlVe_-14" target="xIvlhzACJtldl9GAlVe_-4">
          <mxGeometry relative="1" as="geometry" />
        </mxCell>
        <mxCell id="xIvlhzACJtldl9GAlVe_-36" style="edgeStyle=orthogonalEdgeStyle;rounded=0;orthogonalLoop=1;jettySize=auto;html=1;exitX=0;exitY=0.5;exitDx=0;exitDy=0;entryX=0.75;entryY=1;entryDx=0;entryDy=0;" edge="1" parent="xIvlhzACJtldl9GAlVe_-1" source="xIvlhzACJtldl9GAlVe_-13" target="xIvlhzACJtldl9GAlVe_-4">
          <mxGeometry relative="1" as="geometry" />
        </mxCell>
        <mxCell id="xIvlhzACJtldl9GAlVe_-37" style="edgeStyle=orthogonalEdgeStyle;rounded=0;orthogonalLoop=1;jettySize=auto;html=1;exitX=1;exitY=0.25;exitDx=0;exitDy=0;entryX=0.25;entryY=1;entryDx=0;entryDy=0;" edge="1" parent="xIvlhzACJtldl9GAlVe_-1" source="xIvlhzACJtldl9GAlVe_-11" target="xIvlhzACJtldl9GAlVe_-24">
          <mxGeometry relative="1" as="geometry" />
        </mxCell>
        <mxCell id="xIvlhzACJtldl9GAlVe_-38" value="Subscribe" style="edgeLabel;html=1;align=center;verticalAlign=middle;resizable=0;points=[];" vertex="1" connectable="0" parent="xIvlhzACJtldl9GAlVe_-37">
          <mxGeometry x="-0.0372" y="1" relative="1" as="geometry">
            <mxPoint x="-32" as="offset" />
          </mxGeometry>
        </mxCell>
        <mxCell id="xIvlhzACJtldl9GAlVe_-39" style="edgeStyle=orthogonalEdgeStyle;rounded=0;orthogonalLoop=1;jettySize=auto;html=1;exitX=1;exitY=0.5;exitDx=0;exitDy=0;entryX=0;entryY=0.5;entryDx=0;entryDy=0;" edge="1" parent="xIvlhzACJtldl9GAlVe_-1" source="xIvlhzACJtldl9GAlVe_-21" target="xIvlhzACJtldl9GAlVe_-27">
          <mxGeometry relative="1" as="geometry">
            <mxPoint x="580" y="650" as="targetPoint" />
          </mxGeometry>
        </mxCell>
      </root>
    </mxGraphModel>
  </diagram>
</mxfile>
